<?xml version="1.0" ?><!-- Uploaded to: SVG Repo, www.svgrepo.com, Generator: SVG Repo Mixer Tools -->
<svg fill="#000000" width="800px" height="800px" viewBox="0 0 24 24" data-name="Layer 1" id="Layer_1" xmlns="http://www.w3.org/2000/svg"><title/><path d="M5,22.12a3.11,3.11,0,0,0,2.21-.91L11.41,17l-1.5-1.5.9-.9A7,7,0,1,0,9.4,13.18l-.9.9L7,12.59,2.79,16.79A3.12,3.12,0,0,0,5,22.12ZM15,4a5,5,0,1,1-5,5A5,5,0,0,1,15,4ZM4.21,18.21,7,15.41,8.59,17,5.79,19.79a1.13,1.13,0,0,1-1.59,0,1.12,1.12,0,0,1,0-1.59Z"/><rect height="2" width="2" x="12" y="6"/><rect height="2" width="2" x="16" y="6"/><path d="M18.71,10.71,17.29,9.29a3.32,3.32,0,0,1-4.59,0l-1.41,1.41a5.24,5.24,0,0,0,7.41,0Z"/></svg>